<svg xmlns="http://www.w3.org/2000/svg" viewBox="0 0 24 24"><path fill="#202020" d="M21.79 17.251a4.598 4.598 0 01-4.599 4.598H6.81a4.598 4.598 0 01-4.599-4.598V6.868A4.598 4.598 0 016.81 2.27h10.38a4.598 4.598 0 014.599 4.598v10.383zM17.073 0H6.927A6.927 6.927 0 000 6.927v10.146A6.927 6.927 0 006.927 24h10.146A6.927 6.927 0 0024 17.073V6.927A6.927 6.927 0 0017.073 0zM12 5.832a6.227 6.227 0 110 12.455 6.227 6.227 0 010-12.455zm0 10.264a4.037 4.037 0 100-8.073 4.037 4.037 0 000 8.073zm6.435-11.951a1.45 1.45 0 100 2.901 1.45 1.45 0 000-2.901"/></svg>